<svg width="10" height="6" viewBox="0 0 10 6" fill="none" xmlns="http://www.w3.org/2000/svg">
<path d="M10 0.691817C10 0.863974 9.93711 1.017 9.81132 1.1509L5.44474 5.79915C5.31896 5.93305 5.1752 6 5.01348 6C4.85175 6 4.69901 5.93305 4.55526 5.79915L0.188679 1.1509C0.0628931 1.017 0 0.85441 0 0.663124C0 0.471838 0.0628931 0.31881 0.188679 0.204038C0.314465 0.0892667 0.458221 0.0223167 0.619946 0.0031881C0.781671 -0.0159405 0.925427 0.0510096 1.05121 0.204038L4.98652 4.3932L8.92183 0.204038C9.04762 0.0701382 9.20036 0.0031881 9.38005 0.0031881C9.55975 0.0031881 9.7035 0.0701382 9.81132 0.204038C9.93711 0.376196 10 0.538788 10 0.691817Z" fill="#9996A2"/>
</svg>
