<svg width="93" height="25" viewBox="0 0 93 25" fill="none" xmlns="http://www.w3.org/2000/svg">
<mask id="mask0" mask-type="alpha" maskUnits="userSpaceOnUse" x="0" y="0" width="93" height="25">
<rect width="93" height="25" rx="6.6789" fill="#C4C4C4"/>
</mask>
<g mask="url(#mask0)">
<path d="M0.000353759 12.5C1.69126 12.5 2.53672 13.125 3.8049 14.1667C5.28444 15.4167 6.97535 17.0833 10.3572 17.0833C13.739 17.0833 15.4299 15.4167 16.9094 14.1667C18.1776 13.125 18.8117 12.5 20.714 12.5C22.4049 12.5 23.2504 13.125 24.5185 14.1667C25.9981 15.4167 27.689 17.0833 31.0708 17.0833C34.4526 17.0833 36.1435 15.4167 37.6231 14.1667C38.8913 13.125 39.5253 12.5 41.4276 12.5C43.1185 12.5 43.964 13.125 45.2322 14.1667C46.7117 15.4167 48.4026 17.0833 51.7844 17.0833C55.1663 17.0833 56.8572 15.4167 58.3367 14.1667C59.6049 13.125 60.239 12.5 62.1413 12.5C63.8322 12.5 64.6776 13.125 65.9458 14.1667C67.4253 15.4167 69.1163 17.0833 72.4981 17.0833C75.8799 17.0833 77.5708 15.4167 79.0503 14.1667C80.3185 13.125 80.9526 12.5 82.8549 12.5C84.5458 12.5 85.3912 13.125 86.6594 14.1667C88.139 15.4167 89.8299 17.0833 93.2117 17.0833C96.5935 17.0833 98.2844 15.4167 99.764 14.1667C101.032 13.125 101.666 12.5 103.569 12.5C105.471 12.5 106.105 13.125 107.373 14.1667C108.853 15.4167 110.544 17.0833 113.925 17.0833C117.307 17.0833 118.998 15.4167 120.478 14.1667C121.746 13.125 122.38 12.5 124.282 12.5C125.973 12.5 126.819 13.125 128.087 14.1667C129.566 15.4167 131.257 17.0833 134.639 17.0833C138.021 17.0833 139.712 15.4167 141.191 14.1667C142.459 13.125 143.094 12.5 144.996 12.5C146.687 12.5 147.532 13.125 148.8 14.1667C150.28 15.4167 151.971 17.0833 155.353 17.0833C158.734 17.0833 160.425 15.4167 161.905 14.1667C163.173 13.125 163.807 12.5 165.709 12.5C167.612 12.5 168.246 13.125 169.514 14.1667C170.994 15.4167 172.684 17.0833 176.066 17.0833C177.334 17.0833 178.18 16.25 178.18 15C178.18 13.75 177.334 12.9167 176.066 12.9167C174.375 12.9167 173.53 12.2917 172.262 11.25C170.782 10 169.091 8.33334 165.709 8.33334C162.328 8.33334 160.637 10 159.157 11.25C157.889 12.2917 157.255 12.9167 155.353 12.9167C153.662 12.9167 152.816 12.2917 151.548 11.25C150.069 10 148.378 8.33334 144.996 8.33334C141.614 8.33334 139.923 10 138.444 11.25C137.175 12.2917 136.541 12.9167 134.639 12.9167C132.737 12.9167 132.103 12.2917 130.834 11.25C129.355 10 127.664 8.33334 124.282 8.33334C120.9 8.33334 119.209 10 117.73 11.25C116.462 12.2917 115.828 12.9167 113.925 12.9167C112.023 12.9167 111.389 12.2917 110.121 11.25C108.641 10 106.95 8.33334 103.569 8.33334C100.187 8.33334 98.4958 10 97.0162 11.25C95.7481 12.2917 95.114 12.9167 93.2117 12.9167C91.5208 12.9167 90.6753 12.2917 89.4072 11.25C87.9276 10 86.2367 8.33334 82.8549 8.33334C79.4731 8.33334 77.7822 10 76.3026 11.25C75.0344 12.2917 74.4003 12.9167 72.4981 12.9167C70.8072 12.9167 69.9617 12.2917 68.6935 11.25C67.214 10 65.5231 8.33334 62.1413 8.33334C58.7594 8.33334 57.0685 10 55.589 11.25C54.3208 12.2917 53.6867 12.9167 51.7844 12.9167C50.0935 12.9167 49.2481 12.2917 47.9799 11.25C46.5003 10 44.8094 8.33334 41.4276 8.33334C38.0458 8.33334 36.3549 10 34.8753 11.25C33.6072 12.2917 32.9731 12.9167 31.0708 12.9167C29.3799 12.9167 28.5344 12.2917 27.2663 11.25C25.7867 10 24.0958 8.33334 20.714 8.33334C17.3322 8.33334 15.6413 10 14.1617 11.25C12.8935 12.2917 12.2594 12.9167 10.3572 12.9167C8.4549 12.9167 7.82081 12.2917 6.55263 11.25C5.07308 10 3.38217 8.33334 0.000353759 8.33334C-1.26783 8.33334 -2.11328 9.16668 -2.11328 10.4167C-2.11328 11.6667 -1.26783 12.5 0.000353759 12.5Z" fill="#1533A2"/>
</g>
</svg>
