<svg width="557" height="539" viewBox="0 0 557 539" fill="none" xmlns="http://www.w3.org/2000/svg">
<g filter="url(#filter0_d)">
<path d="M273.461 243.43C250.181 249.668 247.038 270.663 247.038 270.663C247.038 270.663 262.336 286.72 283.539 281.039C304.742 275.358 309.961 253.803 309.961 253.803C309.961 253.803 296.742 237.192 273.461 243.43ZM281.523 273.518C279.283 274.119 276.915 274.044 274.72 273.304C272.525 272.564 270.6 271.191 269.19 269.359C267.779 267.526 266.946 265.318 266.796 263.011C266.647 260.705 267.186 258.405 268.347 256.402C269.509 254.399 271.239 252.783 273.32 251.758C275.4 250.734 277.738 250.347 280.037 250.646C282.336 250.946 284.493 251.918 286.235 253.44C287.977 254.963 289.226 256.966 289.824 259.199C290.612 262.189 290.181 265.371 288.625 268.05C287.069 270.729 284.515 272.689 281.519 273.502L281.523 273.518Z" fill="#1533A2"/>
</g>
<path d="M281.733 274.113C288.146 272.394 291.906 265.635 290.132 259.016C288.359 252.397 281.723 248.424 275.31 250.142C268.898 251.86 265.137 258.619 266.911 265.238C268.684 271.858 275.321 275.831 281.733 274.113Z" fill="#FCDEEB"/>
<defs>
<filter id="filter0_d" x="0.0521851" y="0.144982" width="556.896" height="538.365" filterUnits="userSpaceOnUse" color-interpolation-filters="sRGB">
<feFlood flood-opacity="0" result="BackgroundImageFix"/>
<feColorMatrix in="SourceAlpha" type="matrix" values="0 0 0 0 0 0 0 0 0 0 0 0 0 0 0 0 0 0 127 0"/>
<feOffset dy="7.0928"/>
<feGaussianBlur stdDeviation="120.974"/>
<feColorMatrix type="matrix" values="0 0 0 0 0.845833 0 0 0 0 0.459167 0 0 0 0 0.394722 0 0 0 0.5 0"/>
<feBlend mode="normal" in2="BackgroundImageFix" result="effect1_dropShadow"/>
<feBlend mode="normal" in="SourceGraphic" in2="effect1_dropShadow" result="shape"/>
</filter>
</defs>
</svg>
