<svg width="40" height="27" viewBox="0 0 40 27" fill="none" xmlns="http://www.w3.org/2000/svg">
<mask id="mask0" mask-type="alpha" maskUnits="userSpaceOnUse" x="0" y="0" width="40" height="27">
<rect width="40" height="26.3291" fill="white"/>
</mask>
<g mask="url(#mask0)">
<path d="M22.0403 20.6364C26.0877 19.5518 28.4612 15.2858 27.3418 11.1078C26.2223 6.92977 22.0337 4.42201 17.9862 5.50651C13.9388 6.59102 11.5652 10.8571 12.6847 15.0351C13.8042 19.2131 17.9928 21.7209 22.0403 20.6364Z" fill="#FCDEEB"/>
<g filter="url(#filter0_d)">
<path d="M16.8191 1.27024C2.12508 5.2075 0.141435 18.4591 0.141435 18.4591C0.141435 18.4591 9.79688 28.5941 23.1797 25.0082C36.5625 21.4223 39.8568 7.81734 39.8568 7.81734C39.8568 7.81734 31.5132 -2.66702 16.8191 1.27024ZM21.9077 20.261C20.4936 20.6403 18.9992 20.5934 17.6135 20.1261C16.2278 19.6588 15.013 18.7921 14.1228 17.6357C13.2327 16.4793 12.707 15.0851 12.6124 13.6294C12.5178 12.1738 12.8585 10.722 13.5913 9.45774C14.3242 8.19349 15.4164 7.17355 16.7297 6.5269C18.043 5.88026 19.5184 5.63597 20.9694 5.82493C22.4204 6.01388 23.7818 6.62759 24.8814 7.58844C25.981 8.54928 26.7694 9.81411 27.1469 11.223C27.6441 13.1104 27.372 15.1187 26.39 16.8099C25.4081 18.501 23.7959 19.7379 21.905 20.2509L21.9077 20.261Z" fill="#1533A2"/>
</g>
</g>
<defs>
<filter id="filter0_d" x="-241.806" y="-234.469" width="523.611" height="509.286" filterUnits="userSpaceOnUse" color-interpolation-filters="sRGB">
<feFlood flood-opacity="0" result="BackgroundImageFix"/>
<feColorMatrix in="SourceAlpha" type="matrix" values="0 0 0 0 0 0 0 0 0 0 0 0 0 0 0 0 0 0 127 0"/>
<feOffset dy="7.0928"/>
<feGaussianBlur stdDeviation="120.974"/>
<feColorMatrix type="matrix" values="0 0 0 0 0.845833 0 0 0 0 0.459167 0 0 0 0 0.394722 0 0 0 0.5 0"/>
<feBlend mode="normal" in2="BackgroundImageFix" result="effect1_dropShadow"/>
<feBlend mode="normal" in="SourceGraphic" in2="effect1_dropShadow" result="shape"/>
</filter>
</defs>
</svg>
