<svg width="119" height="16" viewBox="0 0 119 16" fill="none" xmlns="http://www.w3.org/2000/svg">
<mask id="mask0" mask-type="alpha" maskUnits="userSpaceOnUse" x="0" y="0" width="119" height="16">
<rect width="119" height="16" fill="#C4C4C4"/>
</mask>
<g mask="url(#mask0)">
<path d="M-1.00018 7.40913C0.654367 7.40913 1.48164 8.02958 2.72255 9.06367C4.17028 10.3046 5.82482 11.9591 9.13391 11.9591C12.443 11.9591 14.0975 10.3046 15.5453 9.06367C16.7862 8.02958 17.4066 7.40913 19.268 7.40913C20.9226 7.40913 21.7498 8.02958 22.9907 9.06367C24.4385 10.3046 26.093 11.9591 29.4021 11.9591C32.7112 11.9591 34.3657 10.3046 35.8135 9.06367C37.0544 8.02958 37.6748 7.40913 39.5362 7.40913C41.1907 7.40913 42.018 8.02958 43.2589 9.06367C44.7066 10.3046 46.3612 11.9591 49.6703 11.9591C52.9794 11.9591 54.6339 10.3046 56.0816 9.06367C57.3225 8.02958 57.943 7.40913 59.8044 7.40913C61.4589 7.40913 62.2862 8.02958 63.5271 9.06367C64.9748 10.3046 66.6294 11.9591 69.9385 11.9591C73.2475 11.9591 74.9021 10.3046 76.3498 9.06367C77.5907 8.02958 78.2112 7.40913 80.0725 7.40913C81.7271 7.40913 82.5544 8.02958 83.7953 9.06367C85.243 10.3046 86.8975 11.9591 90.2066 11.9591C93.5157 11.9591 95.1703 10.3046 96.618 9.06367C97.8589 8.02958 98.4794 7.40913 100.341 7.40913C102.202 7.40913 102.823 8.02958 104.063 9.06367C105.511 10.3046 107.166 11.9591 110.475 11.9591C113.784 11.9591 115.438 10.3046 116.886 9.06367C118.127 8.02958 118.748 7.40913 120.609 7.40913C122.263 7.40913 123.091 8.02958 124.332 9.06367C125.779 10.3046 127.434 11.9591 130.743 11.9591C134.052 11.9591 135.707 10.3046 137.154 9.06367C138.395 8.02958 139.016 7.40913 140.877 7.40913C142.532 7.40913 143.359 8.02958 144.6 9.06367C146.048 10.3046 147.702 11.9591 151.011 11.9591C154.32 11.9591 155.975 10.3046 157.423 9.06367C158.663 8.02958 159.284 7.40913 161.145 7.40913C163.007 7.40913 163.627 8.02958 164.868 9.06367C166.316 10.3046 167.97 11.9591 171.279 11.9591C172.52 11.9591 173.348 11.1318 173.348 9.89094C173.348 8.65003 172.52 7.82276 171.279 7.82276C169.625 7.82276 168.798 7.20231 167.557 6.16822C166.109 4.92731 164.454 3.27277 161.145 3.27277C157.836 3.27277 156.182 4.92731 154.734 6.16822C153.493 7.20231 152.873 7.82276 151.011 7.82276C149.357 7.82276 148.529 7.20231 147.288 6.16822C145.841 4.92731 144.186 3.27277 140.877 3.27277C137.568 3.27277 135.913 4.92731 134.466 6.16822C133.225 7.20231 132.604 7.82276 130.743 7.82276C128.882 7.82276 128.261 7.20231 127.02 6.16822C125.573 4.92731 123.918 3.27277 120.609 3.27277C117.3 3.27277 115.645 4.92731 114.198 6.16822C112.957 7.20231 112.336 7.82276 110.475 7.82276C108.613 7.82276 107.993 7.20231 106.752 6.16822C105.304 4.92731 103.65 3.27277 100.341 3.27277C97.0316 3.27277 95.3771 4.92731 93.9294 6.16822C92.6885 7.20231 92.068 7.82276 90.2066 7.82276C88.5521 7.82276 87.7248 7.20231 86.4839 6.16822C85.0362 4.92731 83.3816 3.27277 80.0725 3.27277C76.7634 3.27277 75.1089 4.92731 73.6612 6.16822C72.4203 7.20231 71.7998 7.82276 69.9385 7.82276C68.2839 7.82276 67.4566 7.20231 66.2157 6.16822C64.768 4.92731 63.1135 3.27277 59.8044 3.27277C56.4953 3.27277 54.8407 4.92731 53.393 6.16822C52.1521 7.20231 51.5316 7.82276 49.6703 7.82276C48.0157 7.82276 47.1885 7.20231 45.9475 6.16822C44.4998 4.92731 42.8453 3.27277 39.5362 3.27277C36.2271 3.27277 34.5725 4.92731 33.1248 6.16822C31.8839 7.20231 31.2635 7.82276 29.4021 7.82276C27.7476 7.82276 26.9203 7.20231 25.6794 6.16822C24.2316 4.92731 22.5771 3.27277 19.268 3.27277C15.9589 3.27277 14.3044 4.92731 12.8566 6.16822C11.6157 7.20231 10.9953 7.82276 9.13391 7.82276C7.27255 7.82276 6.65209 7.20231 5.41119 6.16822C3.96346 4.92731 2.30891 3.27277 -1.00018 3.27277C-2.24109 3.27277 -3.06836 4.10004 -3.06836 5.34095C-3.06836 6.58186 -2.24109 7.40913 -1.00018 7.40913Z" fill="#1533A2"/>
</g>
</svg>
