<svg width="25" height="25" viewBox="0 0 25 25" fill="none" xmlns="http://www.w3.org/2000/svg">
<path d="M10.7111 18.5171C12.4544 18.5168 14.1476 17.9331 15.5209 16.8592L19.8386 21.1769L21.2274 19.7881L16.9097 15.4704C17.9842 14.0969 18.5682 12.4034 18.5686 10.6596C18.5686 6.32713 15.0435 2.80203 10.7111 2.80203C6.37861 2.80203 2.85352 6.32713 2.85352 10.6596C2.85352 14.992 6.37861 18.5171 10.7111 18.5171ZM10.7111 4.76642C13.9611 4.76642 16.6042 7.4095 16.6042 10.6596C16.6042 13.9097 13.9611 16.5527 10.7111 16.5527C7.46099 16.5527 4.8179 13.9097 4.8179 10.6596C4.8179 7.4095 7.46099 4.76642 10.7111 4.76642Z" fill="#8D919D"/>
</svg>
