<svg width="19" height="19" viewBox="0 0 19 19" fill="none" xmlns="http://www.w3.org/2000/svg">
<path d="M7.85755 15.7151C9.60092 15.7147 11.2941 15.1311 12.6674 14.0572L16.9851 18.3749L18.3739 16.9861L14.0562 12.6683C15.1307 11.2949 15.7147 9.60137 15.7151 7.85755C15.7151 3.52509 12.19 0 7.85755 0C3.52509 0 0 3.52509 0 7.85755C0 12.19 3.52509 15.7151 7.85755 15.7151ZM7.85755 1.96439C11.1076 1.96439 13.7507 4.60747 13.7507 7.85755C13.7507 11.1076 11.1076 13.7507 7.85755 13.7507C4.60747 13.7507 1.96439 11.1076 1.96439 7.85755C1.96439 4.60747 4.60747 1.96439 7.85755 1.96439Z" fill="#1E1D1D"/>
</svg>
