<svg width="91" height="25" viewBox="0 0 91 25" fill="none" xmlns="http://www.w3.org/2000/svg">
<mask id="mask0" mask-type="alpha" maskUnits="userSpaceOnUse" x="0" y="0" width="91" height="25">
<rect width="91" height="24.8182" rx="6.6789" fill="#C4C4C4"/>
</mask>
<g mask="url(#mask0)">
<path d="M-0.000178608 12.4091C1.65437 12.4091 2.48164 13.0296 3.72255 14.0637C5.17028 15.3046 6.82482 16.9591 10.1339 16.9591C13.443 16.9591 15.0975 15.3046 16.5453 14.0637C17.7862 13.0296 18.4066 12.4091 20.268 12.4091C21.9226 12.4091 22.7498 13.0296 23.9907 14.0637C25.4385 15.3046 27.093 16.9591 30.4021 16.9591C33.7112 16.9591 35.3657 15.3046 36.8135 14.0637C38.0544 13.0296 38.6748 12.4091 40.5362 12.4091C42.1907 12.4091 43.018 13.0296 44.2589 14.0637C45.7066 15.3046 47.3612 16.9591 50.6703 16.9591C53.9794 16.9591 55.6339 15.3046 57.0816 14.0637C58.3225 13.0296 58.943 12.4091 60.8044 12.4091C62.4589 12.4091 63.2862 13.0296 64.5271 14.0637C65.9748 15.3046 67.6294 16.9591 70.9385 16.9591C74.2475 16.9591 75.9021 15.3046 77.3498 14.0637C78.5907 13.0296 79.2112 12.4091 81.0725 12.4091C82.7271 12.4091 83.5544 13.0296 84.7953 14.0637C86.243 15.3046 87.8975 16.9591 91.2066 16.9591C94.5157 16.9591 96.1703 15.3046 97.618 14.0637C98.8589 13.0296 99.4794 12.4091 101.341 12.4091C103.202 12.4091 103.823 13.0296 105.063 14.0637C106.511 15.3046 108.166 16.9591 111.475 16.9591C114.784 16.9591 116.438 15.3046 117.886 14.0637C119.127 13.0296 119.748 12.4091 121.609 12.4091C123.263 12.4091 124.091 13.0296 125.332 14.0637C126.779 15.3046 128.434 16.9591 131.743 16.9591C135.052 16.9591 136.707 15.3046 138.154 14.0637C139.395 13.0296 140.016 12.4091 141.877 12.4091C143.532 12.4091 144.359 13.0296 145.6 14.0637C147.048 15.3046 148.702 16.9591 152.011 16.9591C155.32 16.9591 156.975 15.3046 158.423 14.0637C159.663 13.0296 160.284 12.4091 162.145 12.4091C164.007 12.4091 164.627 13.0296 165.868 14.0637C167.316 15.3046 168.97 16.9591 172.279 16.9591C173.52 16.9591 174.348 16.1318 174.348 14.8909C174.348 13.65 173.52 12.8228 172.279 12.8228C170.625 12.8228 169.798 12.2023 168.557 11.1682C167.109 9.92731 165.454 8.27277 162.145 8.27277C158.836 8.27277 157.182 9.92731 155.734 11.1682C154.493 12.2023 153.873 12.8228 152.011 12.8228C150.357 12.8228 149.529 12.2023 148.288 11.1682C146.841 9.92731 145.186 8.27277 141.877 8.27277C138.568 8.27277 136.913 9.92731 135.466 11.1682C134.225 12.2023 133.604 12.8228 131.743 12.8228C129.882 12.8228 129.261 12.2023 128.02 11.1682C126.573 9.92731 124.918 8.27277 121.609 8.27277C118.3 8.27277 116.645 9.92731 115.198 11.1682C113.957 12.2023 113.336 12.8228 111.475 12.8228C109.613 12.8228 108.993 12.2023 107.752 11.1682C106.304 9.92731 104.65 8.27277 101.341 8.27277C98.0316 8.27277 96.3771 9.92731 94.9294 11.1682C93.6885 12.2023 93.068 12.8228 91.2066 12.8228C89.5521 12.8228 88.7248 12.2023 87.4839 11.1682C86.0362 9.92731 84.3816 8.27277 81.0725 8.27277C77.7634 8.27277 76.1089 9.92731 74.6612 11.1682C73.4203 12.2023 72.7998 12.8228 70.9385 12.8228C69.2839 12.8228 68.4566 12.2023 67.2157 11.1682C65.768 9.92731 64.1135 8.27277 60.8044 8.27277C57.4953 8.27277 55.8407 9.92731 54.393 11.1682C53.1521 12.2023 52.5316 12.8228 50.6703 12.8228C49.0157 12.8228 48.1885 12.2023 46.9475 11.1682C45.4998 9.92731 43.8453 8.27277 40.5362 8.27277C37.2271 8.27277 35.5725 9.92731 34.1248 11.1682C32.8839 12.2023 32.2635 12.8228 30.4021 12.8228C28.7476 12.8228 27.9203 12.2023 26.6794 11.1682C25.2316 9.92731 23.5771 8.27277 20.268 8.27277C16.9589 8.27277 15.3044 9.92731 13.8566 11.1682C12.6157 12.2023 11.9953 12.8228 10.1339 12.8228C8.27255 12.8228 7.65209 12.2023 6.41119 11.1682C4.96346 9.92731 3.30891 8.27277 -0.000178608 8.27277C-1.24109 8.27277 -2.06836 9.10004 -2.06836 10.3409C-2.06836 11.5819 -1.24109 12.4091 -0.000178608 12.4091Z" fill="#1533A2"/>
</g>
</svg>
